Coordinates
version=1
nRows=19
nColumns=36
inDegrees=yes

Units are S.I. units (second, meters, Newtons, ...)
If the header above contains a line with 'inDegrees', this indicates whether rotational values are in degrees (yes) or radians (no).

endheader
time	pelvis_tilt	pelvis_list	pelvis_rotation	pelvis_tx	pelvis_ty	pelvis_tz	hip_flexion_r	hip_adduction_r	hip_rotation_r	knee_angle_r	knee_angle_r_beta	ankle_angle_r	subtalar_angle_r	mtp_angle_r	hip_flexion_l	hip_adduction_l	hip_rotation_l	knee_angle_l	knee_angle_l_beta	ankle_angle_l	subtalar_angle_l	mtp_angle_l	lumbar_extension	lumbar_bending	lumbar_rotation	arm_flex_r	arm_add_r	arm_rot_r	elbow_flex_r	pro_sup_r	arm_flex_l	arm_add_l	arm_rot_l	elbow_flex_l	pro_sup_l
      1.25000000	     -4.94829528	     -0.98468860	     -4.88328774	      0.73604030	      1.25039039	      0.06388797	      3.38963305	      1.07248203	      6.69335282	      0.33079292	      0.00577343	      5.24770853	    -12.90699145	     -7.49999985	      3.17366736	     -1.07311517	      5.56545675	      1.75647696	      0.03065631	      5.20501590	     -8.87986066	     -7.49999985	      1.84955622	      1.33326832	     -1.86399512	      3.40721515	     -8.79757608	     12.49330276	     16.85603155	     99.18474706	      2.10417980	     -7.88126077	     12.68040405	     13.74149373	     96.92397790
      1.26666670	     -4.99071111	     -0.96006550	     -4.88142437	      0.73578241	      1.25019112	      0.06386484	      3.50304758	      1.03374111	      6.66219405	      0.32991681	      0.00575813	      5.12716548	    -13.00897166	     -7.49999985	      3.32372213	     -1.04635487	      5.46458628	      1.79761222	      0.03137425	      5.09301470	     -8.92408557	     -7.49999985	      1.69988956	      1.32690554	     -1.92814553	      3.48991698	     -8.87022534	     13.42603932	     16.59697478	     97.12567653	      2.24649170	     -8.00896418	     13.10868519	     13.97124979	     94.78779069
      1.28333330	     -5.00546898	     -0.93989505	     -4.89113828	      0.73597536	      1.25029675	      0.06403583	      3.56470989	      1.00595736	      6.53420354	      0.33478590	      0.00584312	      5.09284621	    -12.87162578	     -7.49999986	      3.44245000	     -1.01793775	      5.38358123	      1.82526801	      0.03185694	      5.02021094	     -8.91394141	     -7.49999986	      1.53336891	      1.31439320	     -1.95635672	      3.49131513	     -8.90963378	     14.13544531	     16.19985607	     95.04521259	      2.40403213	     -8.11077528	     13.59245185	     14.08420616	     92.66344930
      1.30000000	     -5.15925941	     -0.91018571	     -4.84571249	      0.73572973	      1.24712757	      0.06407369	      3.76522708	      0.97067801	      6.40584562	      0.34006960	      0.00593533	      5.03483677	    -12.86027072	     -7.49999986	      3.69546146	     -0.98221604	      5.30294414	      1.86268451	      0.03250998	      4.96754931	     -8.82477796	     -7.49999986	      1.65450035	      1.32097115	     -1.99872081	      3.39786705	     -9.02097102	     14.05191139	     15.81065268	     97.24004696	      2.35472568	     -8.33929703	     13.72481092	     13.99303962	     94.84330680
      1.31666670	     -5.21171676	     -0.88288306	     -4.85701716	      0.73590062	      1.24729763	      0.06424326	      3.86459269	      0.94500908	      6.43455271	      0.34598712	      0.00603861	      4.93607888	    -12.98024069	     -7.49999986	      3.79035183	     -0.94660814	      5.19278025	      1.82952904	      0.03193131	      4.84216865	     -8.83127862	     -7.49999986	      1.55160463	      1.31365382	     -1.99260664	      3.19913576	     -9.10100382	     14.10393392	     15.50971818	     95.73542648	      2.19905223	     -8.48935756	     13.63214105	     14.18858519	     93.21217220
      1.33333330	     -5.28449301	     -0.86173576	     -4.85507857	      0.73595285	      1.24704494	      0.06417250	      3.96448810	      0.91880380	      6.28156943	      0.34864296	      0.00608497	      5.05159475	    -12.72367183	     -7.49999987	      3.92440286	     -0.91798817	      5.11441398	      1.85471959	      0.03237096	      4.86938817	     -8.77682789	     -7.49999987	      1.50336728	      1.33514246	     -1.91260595	      2.95357222	     -9.03356253	     11.68917962	     15.20655090	     99.73116735	      1.85457559	     -8.56046436	     11.60256348	     14.06796312	     96.72497854
      1.35000000	     -5.16405192	     -0.86852069	     -4.82456329	      0.73647562	      1.25042675	      0.06403291	      3.84514553	      0.89729969	      6.14282992	      0.35096506	      0.00612550	      5.05583810	    -12.63023790	     -7.49999987	      3.81655787	     -0.91193960	      5.09471020	      1.83973387	      0.03210941	      4.73847908	     -8.82980501	     -7.49999987	      1.15788726	      1.33771926	     -1.84752755	      2.71354457	     -9.13601597	     11.75650297	     14.90811111	     97.44416070	      1.64724920	     -8.72077307	     11.38482095	     13.95201541	     94.63427236
      1.36666670	     -5.36334781	     -0.85889525	     -4.79081055	      0.73677766	      1.25322139	      0.06404327	      4.07559702	      0.89947849	      6.17932678	      0.36502746	      0.00637093	      4.94328990	    -12.81364130	     -7.49999987	      4.09347622	     -0.91173856	      5.05766261	      1.88805055	      0.03295270	      4.70774913	     -8.79262613	     -7.49999987	      1.33107380	      1.34564140	     -1.80755096	      2.51393998	     -9.21736683	     11.36643257	     14.29167517	    100.07330116	      1.33769949	     -8.94603407	     11.33475035	     13.48888580	     96.73487654
      1.38333330	     -5.43809420	     -0.84279252	     -4.76448459	      0.73666713	      1.24999838	      0.06398903	      4.16955469	      0.88586178	      6.14446467	      0.37154814	      0.00648474	      4.97254050	    -12.80023523	     -7.49999987	      4.20649909	     -0.89379223	      5.01566176	      1.88490919	      0.03289787	      4.65941275	     -8.77074571	     -7.49999987	      1.17112091	      1.34730151	     -1.79433045	      2.15533996	     -9.44330024	     11.34094313	     14.27377699	     99.92498672	      0.95997781	     -9.21633000	     11.30367698	     13.46999807	     96.58470911
      1.40000000	     -5.56868317	     -0.81329604	     -4.75704650	      0.73703424	      1.25252487	      0.06373637	      4.33707425	      0.86642823	      6.08842293	      0.37606391	      0.00656355	      4.87117866	    -12.77210801	     -7.49999987	      4.41289699	     -0.86793929	      5.00831116	      1.93518769	      0.03377540	      4.65696079	     -8.87553109	     -7.49999987	      1.22700057	      1.30564057	     -1.84882842	      2.08334285	     -9.58060775	     12.90202786	     13.30816456	     98.43011449	      0.71129007	     -9.46459366	     12.53785657	     12.73865046	     94.88029734
      1.41666670	     -5.59352010	     -0.83051795	     -4.70102218	      0.73794593	      1.25868158	      0.06372745	      4.36853748	      0.87552995	      5.88395627	      0.37717669	      0.00658298	      4.99131339	    -12.53422071	     -7.49999987	      4.45227800	     -0.87470553	      4.99321460	      1.88736535	      0.03294074	      4.43761731	     -8.92600084	     -7.49999987	      0.96275555	      1.37450784	     -1.84043550	      1.83077027	     -9.66322232	     12.60983220	     12.46070534	     94.48799371	      0.37986717	     -9.41758674	     12.13359117	     11.99830947	     91.16636558
      1.43333330	     -5.77792347	     -0.81923494	     -4.69248768	      0.73780850	      1.25796528	      0.06372984	      4.58865661	      0.87774357	      6.05702318	      0.38696012	      0.00675373	      4.84621893	    -12.93088294	     -7.49999987	      4.61456392	     -0.87787371	      4.72815474	      1.82825125	      0.03190900	      4.35280347	     -8.75463602	     -7.49999987	      0.98482159	      1.37134893	     -1.82303761	      1.41821235	     -9.97073266	     12.89047727	     11.81540355	     98.00971701	     -0.01114705	     -9.75248232	     13.19654176	     11.37553161	     93.89292818
      1.45000000	     -5.82359087	     -0.77453302	     -4.68410453	      0.73828497	      1.25781564	      0.06378815	      4.64880802	      0.84438565	      5.97723519	      0.39971233	      0.00697630	      4.86369143	    -12.89803485	     -7.49999987	      4.71438613	     -0.82616938	      4.74278107	      1.85088839	      0.03230410	      4.10691739	     -9.05557496	     -7.49999987	      0.77091443	      1.29434583	     -1.75715207	      0.98096401	    -10.06258049	     12.89827197	     10.72389448	     95.15924419	     -0.57562308	     -9.84150802	     12.78080185	     10.40279167	     91.01119210
      1.46666670	     -5.97572351	     -0.74511945	     -4.65067469	      0.73849630	      1.25698582	      0.06331537	      4.82062481	      0.82709150	      5.59771257	      0.41130141	      0.00717856	      5.08768947	    -12.46199653	     -7.49999987	      4.93036318	     -0.79489608	      4.53014215	      1.90030683	      0.03316661	      4.14687823	     -8.78490278	     -7.49999987	      0.63569196	      1.22942055	     -1.62372710	      0.50302005	    -10.19858915	     12.99921112	      9.73212491	     93.57119923	     -1.18434888	     -9.93644901	     12.75274847	      9.23297691	     89.31759773
      1.48333330	     -6.15899730	     -0.70441480	     -4.72153585	      0.73851264	      1.25372774	      0.06371657	      5.05993334	      0.82501753	      5.72450756	      0.42459653	      0.00741061	      4.82746499	    -12.95829345	     -7.49999987	      5.21469112	     -0.76115169	      4.23687469	      1.98129041	      0.03458004	      4.02029896	     -8.74942063	     -7.49999987	      0.45677416	      1.14919002	     -1.37876046	     -0.08663238	    -10.59816652	     13.13956376	      9.26226757	     97.74377687	     -1.98589573	    -10.25930563	     13.40661152	      8.52475975	     92.29805597
      1.50000000	     -6.20126404	     -0.70118993	     -4.72970463	      0.73851627	      1.25653759	      0.06377651	      5.13760804	      0.83403673	      5.62486512	      0.44290426	      0.00773014	      4.76925350	    -12.99679353	     -7.49999987	      5.34884670	     -0.75061475	      4.10886541	      2.06538986	      0.03604785	      3.96095418	     -8.81177596	     -7.49999987	     -0.03382969	      1.08874186	     -1.23546799	     -0.70486810	    -10.84727117	     13.10472890	      8.94217983	     97.75531458	     -2.83464233	    -10.46133430	     13.37079586	      8.11414914	     92.30129804
      1.51666670	     -6.57726230	     -0.64968254	     -4.78701677	      0.73893289	      1.25285372	      0.06387821	      5.58751286	      0.82610658	      5.57411249	      0.45905712	      0.00801206	      4.66668039	    -13.13613275	     -7.49999987	      5.87117444	     -0.71285650	      4.06547385	      2.19950437	      0.03838859	      3.72868707	     -9.20180683	     -7.49999987	     -0.04248769	      0.98344858	     -1.02895803	     -1.33550969	    -11.04864747	     14.09898542	      7.84336385	     96.01692263	     -3.64978940	    -10.51971515	     13.60916395	      6.91291455	     90.54691059
      1.53333330	     -6.82324697	     -0.64524720	     -4.83422482	      0.73910327	      1.25537565	      0.06397083	      5.90978961	      0.87323629	      5.70739097	      0.47636592	      0.00831415	      4.36652331	    -13.64380969	     -7.49999987	      6.26385848	     -0.73582367	      3.87278106	      2.33028398	      0.04067113	      3.64353859	     -9.18109568	     -7.49999987	     -0.46450547	      0.91780646	     -0.86077071	     -2.11585453	    -11.25326890	     15.21762871	      7.22183854	     92.90373347	     -4.53395390	    -10.58720817	     14.13925952	      6.18099971	     87.58882898
      1.55000000	     -6.94328576	     -0.66767343	     -4.89333302	      0.73974948	      1.25543416	      0.06407368	      6.15553090	      0.93275780	      5.65042594	      0.55990196	      0.00977213	      4.35015830	    -13.62825181	     -7.49999987	      6.47569777	     -0.74433438	      3.78118363	      2.38661366	      0.04165427	      3.59308683	     -9.18197305	     -7.49999987	     -1.29908914	      0.82837430	     -0.84446027	     -3.02928990	    -11.52922970	     15.23058635	      6.81246959	     92.94510418	     -5.43009825	    -10.82647240	     14.14016116	      5.79875750	     87.61467601
